<?xml version="1.0" encoding="UTF-8"?>
<svg width="512px" height="512px" viewBox="0 0 512 512" version="1.1" xmlns="http://www.w3.org/2000/svg" xmlns:xlink="http://www.w3.org/1999/xlink">
    <title>favicon</title>
    <g id="favicon" stroke="none" stroke-width="1" fill="none" fill-rule="evenodd">
        <circle id="Oval" fill="#000000" cx="256" cy="256" r="250"></circle>
        <path d="M256,0 C397.384896,0 512,114.615104 512,256 C512,397.384896 397.384896,512 256,512 C114.615104,512 0,397.384896 0,256 C0,114.615104 114.615104,0 256,0 Z M256,28.4444444 C130.324537,28.4444444 28.4444444,130.324537 28.4444444,256 C28.4444444,381.675463 130.324537,483.555556 256,483.555556 C381.675463,483.555556 483.555556,381.675463 483.555556,256 C483.555556,130.324537 381.675463,28.4444444 256,28.4444444 Z M327.558763,206.190949 L327.558763,356.353299 L335.749437,356.353299 L397.179489,294.923247 L454.514204,294.923247 L352.130784,397.306667 L256.572925,397.306667 L154.189505,294.923247 L211.52422,294.923247 L272.954272,356.353299 L281.144946,356.353299 L281.144946,206.190949 L327.558763,206.190949 Z M131.799258,135.306667 L131.799258,244.670988 L205.923965,244.670988 L248.049482,167.71091 L186.481419,167.71091 L186.481419,179.862501 L156.102441,179.862501 L156.102441,135.306667 L304.351855,135.306667 L227.18925,277.075232 L97.3697496,277.075232 L97.3697496,135.306667 L131.799258,135.306667 Z" id="Combined-Shape" fill="#FFFFFF" fill-rule="nonzero"></path>
    </g>
</svg>